<svg width="551.13" height="551.13" xmlns="http://www.w3.org/2000/svg" fill="#e4e3e3" enable-background="new 0 0 551.13 551.13">

 <g>
  <title>Layer 1</title>
  <path id="svg_1" d="m499.462,0l-378.902,0c-9.52,0 -17.223,7.703 -17.223,17.223l0,51.668l34.446,0l0,-34.445l344.456,0l0,482.239l-344.456,0l0,-34.446l-34.446,0l0,51.668c0,9.52 7.703,17.223 17.223,17.223l378.902,0c9.52,0 17.223,-7.703 17.223,-17.223l0,-516.684c0,-9.52 -7.704,-17.223 -17.223,-17.223z"/>
  <path transform="rotate(-180 189.451 275.565)" id="svg_2" d="m204.588,366.725l24.354,24.354l115.514,-115.514l-115.514,-115.514l-24.354,24.354l73.937,73.937l-244.079,0l0,34.446l244.08,0l-73.938,73.937z"/>
 </g>
</svg>