<?xml version="1.0" encoding="utf-8"?>
<!-- Generator: Adobe Illustrator 22.1.0, SVG Export Plug-In . SVG Version: 6.00 Build 0)  -->
<svg version="1.1" id="Capa_1" xmlns="http://www.w3.org/2000/svg" xmlns:xlink="http://www.w3.org/1999/xlink" x="0px" y="0px"
	 viewBox="0 0 120 120"  xml:space="preserve">

  <defs>
    <filter id="f3" width="200%" height="200%">
      <feOffset result="offOut" in="SourceAlpha" dx="6" dy="10" />
		<feGaussianBlur result="blurOut" in="offOut" stdDeviation="5" />
		<feBlend in="SourceGraphic" in2="blurOut" mode="normal" />
    </filter>
  </defs>

<style type="text/css">
	.st0{fill:#FAAB1A;stroke-width:20;stroke-miterlimit:10;}
	.st1{fill:none;}
</style>
<circle class="st0" cx="55" cy="55.6" r="30.5"  filter="url(#f3)"/>
<g>
	<g>
		<g>
			<path d="M67.5,48.2c-0.3-0.9-1-1.9-2-2.9c-1-1-2.5-2.2-4-2.2c-0.7,0-1.3,0.2-1.9,0.7c0,0-0.1,0-0.1,0.1l-3,3L55,48.5l-9.7,9.7
				c-0.1,0.1-0.2,0.2-0.2,0.4l-1.9,8.6c-0.1,0.3,0,0.6,0.2,0.7c0.2,0.1,0.3,0.2,0.5,0.2c0,0,15.3,0,15.3,0v-1.6h-9.7l2.6-0.8
				c0.1,0,0.2-0.1,0.3-0.2l10.1-10.1l1.6-1.6l2.6-2.6c0,0,0,0,0,0l0,0l0.1-0.1c0,0,0-0.1,0.1-0.1C67.7,50.4,67.9,49.3,67.5,48.2z
				 M45.1,66.2l1.3-6l4.3,4.3L45.1,66.2z M52.1,63.8L47,58.7l12-12l5.1,5.1L52.1,63.8z M65.8,50.2C65.8,50.2,65.8,50.2,65.8,50.2
				L65.8,50.2C65.8,50.2,65.8,50.2,65.8,50.2l-0.6,0.6l-5.1-5.1l0.6-0.6c0,0,0,0,0,0c0.2-0.2,0.5-0.3,0.8-0.3c0.8,0,1.8,0.6,2.9,1.7
				C65,47,66.9,49,65.8,50.2z"/>
			<polygon class="st1" points="50.7,64.6 45.1,66.2 46.3,60.3 			"/>
			<path class="st1" d="M65.8,50.2C65.8,50.2,65.8,50.2,65.8,50.2L65.8,50.2C65.8,50.2,65.8,50.2,65.8,50.2l-0.6,0.6l-5.1-5.1
				l0.6-0.6c0,0,0,0,0,0c0.2-0.2,0.5-0.3,0.8-0.3c0.8,0,1.8,0.6,2.9,1.7C65,47,66.9,49,65.8,50.2z"/>
			<path d="M60.4,51.6L52,60c-0.2,0.2-0.4,0.2-0.6,0.2c-0.2,0-0.4-0.1-0.6-0.2c-0.3-0.3-0.3-0.8,0-1.1l8.4-8.4
				c0.3-0.3,0.8-0.3,1.1,0C60.7,50.8,60.7,51.3,60.4,51.6z"/>
			<path class="st1" d="M55,48.5l-9.7,9.7c-0.1,0.1-0.2,0.2-0.2,0.4l-1.9,8.6c-0.1,0.3,0,0.6,0.2,0.7c0.2,0.1,0.3,0.2,0.5,0.2
				c0,0,15.3,0,15.3,0v-1.6h-9.7l2.6-0.8c0.1,0,0.2-0.1,0.3-0.2l10.1-10.1"/>
		</g>
	</g>
</g>
</svg>
