<?xml version="1.0" encoding="utf-8"?>
<!-- Generator: Adobe Illustrator 22.1.0, SVG Export Plug-In . SVG Version: 6.00 Build 0)  -->
<svg version="1.1" id="Capa_1" xmlns="http://www.w3.org/2000/svg" xmlns:xlink="http://www.w3.org/1999/xlink" x="0px" y="0px"
	 viewBox="0 0 1436 724" style="enable-background:new 0 0 1436 724;" xml:space="preserve">
<style type="text/css">
	.st0{fill:white;}
	.st1{fill:none;}
	.st2{fill:none;stroke:#E4E3E3;stroke-width:20;stroke-miterlimit:10;}
</style>
	<path class="st2" opacity="0.8" d="M1380,688H54c-6.6,0-12-5.4-12-12V54c0-6.6,5.4-12,12-12h1326c6.6,0,12,5.4,12,12v622
	C1392,682.6,1386.6,688,1380,688z"/>
<g>
	<g>
		<g>
			<path class="st0" d="M982.3,199c-6.7-20-21.5-42-42.9-63.3c-21.5-21.5-54.4-47.2-88.3-47.2c-15.2,0-29.3,5.3-40.7,15.5
				c-0.6,0.5-1.2,1-1.7,1.5l-65.8,65.8l-34.7,34.7L497,417.1c-2.4,2.4-4,5.4-4.7,8.6l-40.4,188.8c-1.3,6,0.7,12.2,5.1,16.3
				c3.3,3,7.5,4.7,11.8,4.7c0.9,0,334.7,0,334.7,0v-34.7H591.6l56.9-16.4c2.8-0.8,5.4-2.3,7.5-4.4l220.2-220.2l34.4-34.4l57.6-57.6
				c0.1-0.1,0.2-0.2,0.4-0.3c0,0,0,0,0,0l1.1-1.1c0.5-0.5,1-1.1,1.5-1.7C986.9,247,990.8,224.3,982.3,199z M491.9,593.5l27.8-130
				l94.6,94.6L491.9,593.5z M646.1,540.9L534.2,429l261-261L907,279.9L646.1,540.9z M944.7,242.2c-0.2,0.2-0.4,0.4-0.5,0.6l-0.1,0.1
				c0,0.1-0.1,0.1-0.2,0.2l-12.2,12.2L819.7,143.5l12.5-12.5c0.2-0.2,0.4-0.4,0.6-0.6c5.3-5,11.1-7.3,18.2-7.3
				c17,0,40.2,13.5,63.8,37.1C927.8,173.1,968.1,217.1,944.7,242.2z"/>
			<polygon class="st1" points="614.3,558.2 491.9,593.5 519.7,463.6 			"/>
			<path class="st1" d="M944.7,242.2c-0.2,0.2-0.4,0.4-0.5,0.6l-0.1,0.1c0,0.1-0.1,0.1-0.2,0.2l-12.2,12.2L819.7,143.5l12.5-12.5
				c0.2-0.2,0.4-0.4,0.6-0.6c5.3-5,11.1-7.3,18.2-7.3c17,0,40.2,13.5,63.8,37.1C927.8,173.1,968.1,217.1,944.7,242.2z"/>
			<path class="st0" d="M825.5,274.1L642.2,457.4c-3.4,3.4-7.8,5.1-12.3,5.1s-8.9-1.7-12.3-5.1c-6.8-6.8-6.8-17.8,0-24.5L801,249.6
				c6.8-6.8,17.8-6.8,24.5,0C832.3,256.3,832.3,267.3,825.5,274.1z"/>
			<path class="st1" d="M708.2,205.9L497,417.1c-2.4,2.4-4,5.4-4.7,8.6l-40.4,188.8c-1.3,6,0.7,12.2,5.1,16.3
				c3.3,3,7.5,4.7,11.8,4.7c0.9,0,334.7,0,334.7,0v-34.7H591.6l56.9-16.4c2.8-0.8,5.4-2.3,7.5-4.4l220.2-220.2"/>
		</g>
	</g>
</g>

</svg>
