<?xml version="1.0" encoding="utf-8"?>
<!-- Generator: Adobe Illustrator 22.1.0, SVG Export Plug-In . SVG Version: 6.00 Build 0)  -->
<svg version="1.1" id="Capa_1" xmlns="http://www.w3.org/2000/svg" xmlns:xlink="http://www.w3.org/1999/xlink" x="0px" y="0px"
	 viewBox="0 0 120 120" style="enable-background:new 0 0 120 120;" xml:space="preserve">
<style type="text/css">
	.st0{filter:url(#f3);}
	.st1{fill:#4D8266;}
	.st2{fill:none;stroke:#FFFFFF;}
	.st3{fill:#FFFFFF;stroke:#FFFFFF;}
	.st4{display:none;fill:none;stroke:#FFFFFF;}
</style>
<filter  height="200%" id="f3" width="200%">
	<feOffset  dx="6" dy="10" in="SourceAlpha" result="offOut"></feOffset>
	<feGaussianBlur  in="offOut" result="blurOut" stdDeviation="5"></feGaussianBlur>
	<feBlend  in="SourceGraphic" in2="blurOut" mode="normal"></feBlend>
</filter>
<g class="st0">
	<circle class="st1" cx="55" cy="55.6" r="30.5"/>
</g>
<g>
	<path class="st2" d="M50.6,64.5l-5.5,1.7L50.6,64.5L50.6,64.5z M46.3,60.3l-1.2,5.9L46.3,60.3L46.3,60.3z"/>
	<path class="st3" d="M50.7,64.6l-5.6,1.6l1.2-5.9l0.1,0.1l0-0.2L50.7,64.6L50.7,64.6L50.7,64.6z M52.1,63.8L47,58.7l12-12l5.1,5.1
		L52.1,63.8z M65.8,50.2l-0.6,0.6l-5.1-5.1l0.6-0.6c0.2-0.2,0.5-0.3,0.8-0.3c0.8,0,1.8,0.6,2.9,1.7C65,47,66.9,49,65.8,50.2z"/>
	<path class="st4" d="M66.9,51c-0.1,0-0.1,0.1-0.1,0.1l-0.1,0.1l-2.6,2.6l-1.6,1.6L52.4,65.5c-0.1,0.1-0.2,0.2-0.3,0.2l-2.6,0.8h9.7
		v1.6H43.9c-0.2,0-0.3-0.1-0.5-0.2c-0.2-0.1-0.3-0.4-0.2-0.7l1.9-8.6c0-0.2,0.1-0.3,0.2-0.4l9.7-9.7l1.5-1.6l3-3
		c0-0.1,0.1-0.1,0.1-0.1c0.6-0.5,1.2-0.7,1.9-0.7c1.5,0,3,1.2,4,2.2s1.7,2,2,2.9C67.9,49.3,67.7,50.4,66.9,51z"/>
	<polygon class="st4" points="50.7,64.6 45.1,66.2 46.3,60.3 46.4,60.4 50.6,64.5 	"/>
	<path class="st2" d="M65.8,50.2l-0.6,0.6l-5.1-5.1l0.6-0.6c0.2-0.2,0.5-0.3,0.8-0.3c0.8,0,1.8,0.6,2.9,1.7C65,47,66.9,49,65.8,50.2
		z"/>
	<path class="st4" d="M60.4,51.6L52,60c-0.2,0.2-0.4,0.2-0.6,0.2c-0.2,0-0.4-0.1-0.6-0.2c-0.3-0.3-0.3-0.8,0-1.1l8.4-8.4
		c0.3-0.3,0.8-0.3,1.1,0C60.7,50.8,60.7,51.3,60.4,51.6z"/>
</g>
</svg>
